<svg xmlns="http://www.w3.org/2000/svg" width="190.047" height="37.522" viewBox="0 0 190.047 37.522">
  <g id="Group_439" data-name="Group 439" transform="translate(-2011.886 154.842)">
    <path id="Path_662" data-name="Path 662" d="M442.21,45.152a9.45,9.45,0,1,1,.117-12.537h6.5V26.068a18.661,18.661,0,1,0,0,25.5V45.152Z" transform="translate(1648.538 -175)" fill="#ca0538"/>
    <path id="Path_663" data-name="Path 663" d="M498.93,38.9h1.887V37a5.637,5.637,0,0,0-4.131-1.779,5.694,5.694,0,1,0,0,11.388,5.635,5.635,0,0,0,4.131-1.779V42.961h-1.925a3.015,3.015,0,1,1,.038-4.058" transform="translate(1639.219 -176.885)" fill="#ca0538"/>
    <path id="Path_664" data-name="Path 664" d="M493.671,40.911a3.012,3.012,0,0,0,5.222,2.05h1.925v1.866a5.638,5.638,0,0,1-4.132,1.779,5.694,5.694,0,1,1,0-11.388A5.638,5.638,0,0,1,500.817,37V38.9H498.93a3.012,3.012,0,0,0-5.259,2.009" transform="translate(1639.219 -176.885)" fill="#ca0538"/>
    <path id="Path_697" data-name="Path 697" d="M364.878,21.357V42.6a11.612,11.612,0,0,0,.629,4.3,4.028,4.028,0,0,0,4.015,2.515c2.274,0,3.435-1.016,3.966-2.321a11.891,11.891,0,0,0,.581-4.5V21.357h9.143V42.6c0,6-1.307,8.659-3.58,10.981a13.386,13.386,0,0,1-10.013,3.869c-2.612,0-7.353-.629-10.3-3.821-2.951-3.241-3.58-5.756-3.58-11.029V21.357Z" transform="translate(1656.15 -175.15)" fill="#41413e"/>
    <path id="Path_665" data-name="Path 665" d="M389.507,21.358h9.143V37.466l10.206-16.108h9.578l-11.8,17.8,13.011,17.994H408.517L398.65,41.674V57.153h-9.143Z" transform="translate(1651.923 -175.15)" fill="#41413e"/>
    <path id="Path_666" data-name="Path 666" d="M464.327,45.2c0,4.16,2.564,4.886,3.725,4.886a3.452,3.452,0,0,0,3.482-3.435c0-1.887-1.5-2.467-7.013-4.789-2.516-1.017-8.756-3.532-8.756-10.256,0-7.207,6.531-11.028,12.528-11.028,4.934,0,11.9,2.515,12.045,11.125h-9.047c-.193-1.209-.483-3.483-3.288-3.483a2.981,2.981,0,0,0-3.145,2.806c0,1.645.968,2.079,7.4,4.982,6.676,3,8.369,6.095,8.369,10.255,0,5.708-3,11.465-12.48,11.465-9.384,0-13.156-5.515-12.915-12.528Z" transform="translate(1643.696 -175.053)" fill="#41413e"/>
    <path id="Path_667" data-name="Path 667" d="M493.025,23.847h-2.2v-2.5h7.066v2.5h-2.022v8.643h-2.846Z" transform="translate(1639.24 -175.149)" fill="#41413e"/>
    <path id="Path_668" data-name="Path 668" d="M499.721,21.348h2.5V24.9a2.422,2.422,0,0,1,2.184-1.054,2.636,2.636,0,0,1,2.484,1.19,5.333,5.333,0,0,1,.573,2.786v4.668h-2.5V27.943a2.358,2.358,0,0,0-.255-1.22,1.2,1.2,0,0,0-1.085-.527,1.22,1.22,0,0,0-1.219.677,2.181,2.181,0,0,0-.181.979v4.638h-2.5Z" transform="translate(1638.126 -175.149)" fill="#41413e"/>
    <path id="Path_669" data-name="Path 669" d="M511.888,29.536a1.818,1.818,0,0,0,1.927,1.476,1.686,1.686,0,0,0,1.521-.783h2.56a4.9,4.9,0,0,1-1.7,2.138,4.064,4.064,0,0,1-2.38.753,4.458,4.458,0,0,1-.046-8.915,4.274,4.274,0,0,1,3.163,1.325,4.667,4.667,0,0,1,1.175,4.006Zm3.764-1.9a1.978,1.978,0,0,0-3.735,0Z" transform="translate(1636.916 -175.507)" fill="#41413e"/>
    <path id="Path_670" data-name="Path 670" d="M526.2,21.348v6.731a3.608,3.608,0,0,0,.2,1.34,1.255,1.255,0,0,0,1.25.783,1.192,1.192,0,0,0,1.234-.723,3.713,3.713,0,0,0,.18-1.4V21.348h2.847v6.731c0,1.868-.407,2.7-1.115,3.419a4.168,4.168,0,0,1-3.117,1.2,4.488,4.488,0,0,1-3.208-1.19,4.248,4.248,0,0,1-1.114-3.434V21.348Z" transform="translate(1635.168 -175.149)" fill="#41413e"/>
    <path id="Path_671" data-name="Path 671" d="M534.268,21.348h2.846v5.014l3.177-5.014h2.982L539.6,26.889l4.051,5.6h-3.463l-3.072-4.819v4.819h-2.846Z" transform="translate(1633.802 -175.149)" fill="#41413e"/>
    <path id="Path_672" data-name="Path 672" d="M503.1,42.661a4.45,4.45,0,1,1,0,.015Zm2.5.03a2.119,2.119,0,1,0,0-.015Z" transform="translate(1637.703 -177.263)" fill="#ca0538"/>
    <path id="Path_673" data-name="Path 673" d="M514.179,38.5h2.334v.889a2.482,2.482,0,0,1,2.3-1.175c2.816,0,3.1,2.289,3.1,3.418V46.86h-2.5V42.3c0-.919-.2-1.732-1.31-1.732-1.235,0-1.431.889-1.431,1.747V46.86h-2.5Z" transform="translate(1636.317 -177.261)" fill="#ca0538"/>
    <path id="Path_674" data-name="Path 674" d="M532.707,43.683a4.488,4.488,0,0,1-8.854-1.024,4.472,4.472,0,0,1,8.839-.934h-2.53a1.873,1.873,0,0,0-1.807-1.174,1.791,1.791,0,0,0-1.445.587,2.3,2.3,0,0,0-.542,1.536,1.975,1.975,0,0,0,1.988,2.123,1.921,1.921,0,0,0,1.807-1.115Z" transform="translate(1635.105 -177.261)" fill="#ca0538"/>
    <path id="Path_675" data-name="Path 675" d="M534.782,38.5h2.349v.933a2.1,2.1,0,0,1,2.123-1.22v2.515h-.09c-1.28,0-1.883.466-1.883,1.641V46.86h-2.5Z" transform="translate(1633.737 -177.261)" fill="#ca0538"/>
    <path id="Path_676" data-name="Path 676" d="M542.541,43.548a1.818,1.818,0,0,0,1.927,1.476,1.686,1.686,0,0,0,1.521-.783h2.56a4.906,4.906,0,0,1-1.7,2.138,4.064,4.064,0,0,1-2.38.753,4.458,4.458,0,0,1-.045-8.915,4.274,4.274,0,0,1,3.162,1.325,4.667,4.667,0,0,1,1.175,4.006Zm3.764-1.9a1.978,1.978,0,0,0-3.735,0Z" transform="translate(1633.079 -177.261)" fill="#ca0538"/>
    <path id="Path_677" data-name="Path 677" d="M551.083,35.36h2.5v2.785h1.2v1.9h-1.2V46.5h-2.5Z" transform="translate(1631.697 -176.903)" fill="#ca0538"/>
    <path id="Path_678" data-name="Path 678" d="M558.028,43.548a1.818,1.818,0,0,0,1.927,1.476,1.687,1.687,0,0,0,1.521-.783h2.56a4.906,4.906,0,0,1-1.7,2.138,4.064,4.064,0,0,1-2.38.753,4.458,4.458,0,0,1-.046-8.915,4.274,4.274,0,0,1,3.163,1.325,4.667,4.667,0,0,1,1.175,4.006Zm3.765-1.9a1.978,1.978,0,0,0-3.735,0Z" transform="translate(1631.14 -177.261)" fill="#ca0538"/>
    <path id="Path_679" data-name="Path 679" d="M494.7,56.951c0,1.295.8,1.52,1.159,1.52a1.075,1.075,0,0,0,1.085-1.069c0-.587-.467-.768-2.184-1.491-.783-.316-2.726-1.1-2.726-3.192a3.631,3.631,0,0,1,3.9-3.434,3.452,3.452,0,0,1,3.75,3.464h-2.816c-.06-.377-.15-1.085-1.024-1.085a.928.928,0,0,0-.979.874c0,.512.3.647,2.3,1.55,2.078.934,2.605,1.9,2.605,3.193,0,1.777-.933,3.568-3.885,3.568-2.922,0-4.1-1.716-4.021-3.9Z" transform="translate(1639.109 -178.646)" fill="#41413e"/>
    <path id="Path_680" data-name="Path 680" d="M501.662,49.527h2.5v3.554a2.422,2.422,0,0,1,2.184-1.054,2.636,2.636,0,0,1,2.484,1.19A5.332,5.332,0,0,1,509.4,56V60.67h-2.5V56.122a2.358,2.358,0,0,0-.255-1.219,1.2,1.2,0,0,0-1.085-.527,1.22,1.22,0,0,0-1.22.677,2.181,2.181,0,0,0-.181.979V60.67h-2.5Z" transform="translate(1637.883 -178.676)" fill="#41413e"/>
    <path id="Path_681" data-name="Path 681" d="M511.141,56.829a4.45,4.45,0,1,1,0,.015Zm2.5.03a2.119,2.119,0,1,0,0-.015Z" transform="translate(1636.697 -179.036)" fill="#41413e"/>
    <path id="Path_682" data-name="Path 682" d="M521.062,52.712h2.59l1.28,5.2,1.37-5.2h2.108l1.415,5.2,1.25-5.2h2.575l-2.56,8.357h-2.319l-1.43-5.406-1.4,5.406h-2.319Z" transform="translate(1635.455 -179.075)" fill="#41413e"/>
    <path id="Path_683" data-name="Path 683" d="M537.616,59.587c1.232-1.186,2.448-2.387,3.664-3.574,1.021-.961,2.1-1.892,2.163-3.259a2.224,2.224,0,0,0-2.282-2.373c-1.291,0-2.223,1.006-2.268,2.7h-1.186a3.949,3.949,0,0,1,.961-2.673,3.381,3.381,0,0,1,2.612-1.127,3.259,3.259,0,0,1,3.393,3.409,4.677,4.677,0,0,1-1.7,3.183c-1.217,1.217-2.433,2.433-3.664,3.649H544.7v1.066h-7.088Z" transform="translate(1633.383 -178.646)" fill="#ca0538"/>
    <path id="Path_684" data-name="Path 684" d="M546.527,53.13a3.763,3.763,0,1,1,7.524-.09v3.994a3.762,3.762,0,0,1-7.524,0Zm1.247,3.934a2.49,2.49,0,0,0,2.522,2.628,2.547,2.547,0,0,0,2.522-2.628V53.01a2.526,2.526,0,1,0-5.044.059Z" transform="translate(1632.267 -178.646)" fill="#ca0538"/>
    <path id="Path_685" data-name="Path 685" d="M555.9,59.587c1.232-1.186,2.448-2.387,3.664-3.574,1.021-.961,2.1-1.892,2.163-3.259a2.224,2.224,0,0,0-2.282-2.373c-1.291,0-2.223,1.006-2.268,2.7h-1.186a3.949,3.949,0,0,1,.961-2.673,3.381,3.381,0,0,1,2.612-1.127,3.259,3.259,0,0,1,3.393,3.409,4.677,4.677,0,0,1-1.7,3.183c-1.217,1.217-2.433,2.433-3.664,3.649h5.391v1.066H555.9Z" transform="translate(1631.093 -178.646)" fill="#ca0538"/>
    <path id="Path_686" data-name="Path 686" d="M569.747,60.647V58.614H564.13V57.606l5.406-8.1h1.325v8.1h1.008v1.009h-1.008v2.033Zm0-9.607h-.031l-4.307,6.566h4.337Z" transform="translate(1630.064 -178.673)" fill="#ca0538"/>
  </g>
</svg>
