<?xml version="1.0" encoding="UTF-8"?>
<svg id="Layer_1" data-name="Layer 1" xmlns="http://www.w3.org/2000/svg" version="1.1" viewBox="0 0 247.8 48.9">
  <defs>
    <style>
      .cls-1 {
        fill: #41413e;
      }

      .cls-1, .cls-2 {
        stroke-width: 0px;
      }

      .cls-2 {
        fill: #ca0538;
      }
    </style>
  </defs>
  <path class="cls-1" d="M11.9,1.4v27.7c0,1.6,0,3.8.8,5.6s2.3,3.3,5.2,3.3,4.5-1.3,5.2-3c.8-1.8.8-4,.8-5.9V1.4h11.9v27.7c0,7.8-1.7,11.3-4.7,14.3-3,3.1-7.2,5-13,5s-9.6-.8-13.4-5C.8,39.2,0,35.9,0,29V1.4h11.9Z"/>
  <path class="cls-1" d="M38.5,1.4h11.9v21L63.7,1.4h12.5l-15.4,23.2,16.9,23.4h-14.5l-12.8-20.2v20.2h-11.9V1.4Z"/>
  <path class="cls-1" d="M125.2,32.5c0,5.4,3.3,6.4,4.8,6.4,2.8,0,4.5-2.3,4.5-4.5s-2-3.2-9.1-6.2c-3.3-1.3-11.4-4.6-11.4-13.4S122.5.5,130.3.5s15.5,3.3,15.7,14.5h-11.8c-.3-1.6-.6-4.5-4.3-4.5s-4.1,1.4-4.1,3.7,1.3,2.7,9.6,6.5c8.7,3.9,10.9,7.9,10.9,13.4s-3.9,14.9-16.3,14.9-17.1-7.2-16.8-16.3h11.8l.2-.2Z"/>
  <path class="cls-1" d="M156.7,4.6h-2.9V1.4h9.2v3.3h-2.6v11.3h-3.7V4.6Z"/>
  <path class="cls-1" d="M164,1.4h3.3v4.6c.6-1,1.7-1.4,2.8-1.4,1.7,0,2.6.6,3.2,1.5s.7,2.2.7,3.6v6.1h-3.3v-5.9c0-.6,0-1.2-.3-1.6s-.7-.7-1.4-.7-1.4.4-1.6.9c-.2.5-.2,1-.2,1.3v6h-3.3V1.4h.1Z"/>
  <path class="cls-1" d="M178.3,11.6c.1,1.2,1.2,1.9,2.5,1.9s1.6-.5,2-1h3.3c-.5,1.2-1.3,2.2-2.2,2.8s-2,1-3.1,1c-3.1,0-5.8-2.5-5.8-5.8s2.4-5.8,5.7-5.8,3.1.6,4.1,1.7c1.4,1.5,1.8,3.2,1.5,5.2h-8.1.1ZM183.2,9.1c0-.5-.7-1.7-2.4-1.7s-2.4,1.2-2.4,1.7h4.9-.1Z"/>
  <path class="cls-1" d="M194.6,1.4v8.8c0,.5,0,1.2.3,1.7.3.6.7,1,1.6,1s1.4-.4,1.6-.9.2-1.3.2-1.8V1.4h3.7v8.8c0,2.4-.5,3.5-1.5,4.5-.9,1-2.3,1.6-4.1,1.6s-3-.3-4.2-1.5c-1.2-1.3-1.5-2.3-1.5-4.5V1.4h3.9Z"/>
  <path class="cls-1" d="M203.4,1.4h3.7v6.5l4.1-6.5h3.9l-4.8,7.2,5.3,7.3h-4.5l-4-6.3v6.3h-3.7V1.4Z"/>
  <path class="cls-1" d="M158.8,43.2c0,1.7,1,2,1.5,2,.9,0,1.4-.7,1.4-1.4s-.6-1-2.8-1.9c-1-.4-3.5-1.4-3.5-4.2s2.6-4.5,5.1-4.5,4.8,1,4.9,4.5h-3.7c0-.5-.2-1.4-1.3-1.4s-1.3.5-1.3,1.1.4.8,3,2c2.7,1.2,3.4,2.5,3.4,4.2s-1.2,4.6-5.1,4.6-5.3-2.2-5.2-5.1h3.7,0Z"/>
  <path class="cls-1" d="M166.2,33.5h3.3v4.6c.6-1,1.7-1.4,2.8-1.4,1.7,0,2.6.6,3.2,1.5s.7,2.2.7,3.6v6.1h-3.3v-5.9c0-.6,0-1.2-.3-1.6s-.7-.7-1.4-.7-1.4.4-1.6.9-.2,1-.2,1.3v6h-3.3v-14.5h.1Z"/>
  <path class="cls-1" d="M177,42.5c0-2.6,1.9-5.8,5.9-5.8s5.9,3.1,5.9,5.8-1.9,5.8-5.9,5.8-5.9-3.1-5.9-5.8ZM180.3,42.5c0,1.6,1.2,2.7,2.6,2.7s2.6-1.2,2.6-2.7-1.2-2.7-2.6-2.7-2.6,1.2-2.6,2.7Z"/>
  <path class="cls-1" d="M188.3,37.1h3.4l1.7,6.8,1.8-6.8h2.7l1.8,6.8,1.6-6.8h3.4l-3.3,10.9h-3l-1.9-7-1.8,7h-3l-3.3-10.9h0Z"/>
  <g>
    <path class="cls-2" d="M102.7,32.5c-2.3,2.5-5.5,4.1-9.1,4.1-6.8,0-12.3-5.5-12.3-12.3s5.5-12.3,12.3-12.3,7,1.6,9.3,4.2h8.5V7.7C107,3,100.7,0,93.7,0,80.3,0,69.4,10.9,69.4,24.3s10.9,24.3,24.3,24.3,13.3-3,17.7-7.7v-8.4h-8.7Z"/>
    <path class="cls-2" d="M164.4,22h2.5v-2.5c-1.4-1.5-3.3-2.3-5.4-2.3-4.1,0-7.4,3.3-7.4,7.4s3.3,7.4,7.4,7.4,4-.8,5.4-2.3v-2.4h-2.5c-.7.8-1.8,1.3-2.9,1.3-2.2,0-3.9-1.8-3.9-3.9s1.8-3.9,3.9-3.9,2.2.5,2.9,1.3h0Z"/>
    <path class="cls-2" d="M157.6,24.6c0,2.2,1.8,3.9,3.9,3.9s2.1-.5,2.9-1.3h2.5v2.4c-1.4,1.5-3.3,2.3-5.4,2.3-4.1,0-7.4-3.3-7.4-7.4s3.3-7.4,7.4-7.4,4,.8,5.4,2.3v2.5h-2.5c-.7-.8-1.8-1.3-2.9-1.3-2.2,0-3.9,1.8-3.9,3.9h0Z"/>
    <path class="cls-2" d="M167.9,26.4c0-2.6,1.9-5.8,5.9-5.8s5.9,3.1,5.9,5.8-1.9,5.8-5.9,5.8-5.9-3.1-5.9-5.8ZM171.1,26.4c0,1.6,1.2,2.7,2.6,2.7s2.6-1.2,2.6-2.7-1.2-2.7-2.6-2.7-2.6,1.2-2.6,2.7Z"/>
    <path class="cls-2" d="M180.5,20.9h3v1.2c.4-.5,1.1-1.5,3-1.5,3.7,0,4,3,4,4.5v6.8h-3.3v-5.9c0-1.2-.3-2.3-1.7-2.3s-1.9,1.2-1.9,2.3v5.9h-3.3v-10.9h.2Z"/>
    <path class="cls-2" d="M203,27.7c-.6,2.5-2.8,4.5-5.7,4.5s-5.8-2.6-5.8-5.8,2.5-5.8,5.7-5.8,5.2,1.9,5.8,4.6h-3.3c-.4-.7-1-1.5-2.4-1.5s-1.4.3-1.9.8-.7,1.2-.7,2c0,1.6,1,2.8,2.6,2.8s2-.8,2.4-1.5h3.3,0Z"/>
    <path class="cls-2" d="M203.9,20.9h3.1v1.2c.3-.6.9-1.6,2.8-1.6v3.3h-.1c-1.7,0-2.5.6-2.5,2.1v5.8h-3.3v-10.9h0Z"/>
    <path class="cls-2" d="M213.2,27.5c.1,1.2,1.2,1.9,2.5,1.9s1.6-.5,2-1h3.3c-.5,1.2-1.3,2.2-2.2,2.8s-2,1-3.1,1c-3.1,0-5.8-2.5-5.8-5.8s2.4-5.8,5.7-5.8,3.1.6,4.1,1.7c1.4,1.5,1.8,3.2,1.5,5.2h-8.1.1ZM218.1,25c0-.5-.7-1.7-2.4-1.7s-2.4,1.2-2.4,1.7h4.9-.1Z"/>
    <path class="cls-2" d="M222.5,17.3h3.3v3.6h1.6v2.5h-1.6v8.4h-3.3v-14.5Z"/>
    <path class="cls-2" d="M230.8,27.5c.1,1.2,1.2,1.9,2.5,1.9s1.6-.5,2-1h3.3c-.5,1.2-1.3,2.2-2.2,2.8s-2,1-3.1,1c-3.1,0-5.8-2.5-5.8-5.8s2.4-5.8,5.7-5.8,3.1.6,4.1,1.7c1.4,1.5,1.8,3.2,1.5,5.2h-8.1.1ZM235.7,25c0-.5-.7-1.7-2.4-1.7s-2.4,1.2-2.4,1.7h4.9-.1Z"/>
    <path class="cls-2" d="M207.2,46.6c1.6-1.5,3.2-3.1,4.8-4.7,1.3-1.3,2.7-2.5,2.8-4.2,0-1.9-1.3-3.1-3-3.1s-2.9,1.3-3,3.5h-1.5c0-1.4.4-2.6,1.3-3.5,1-1.2,2.4-1.5,3.4-1.5,2.7,0,4.5,2,4.4,4.4,0,1.6-.8,2.7-2.2,4.1-1.6,1.6-3.2,3.2-4.8,4.8h7v1.4h-9.2v-1.3h0Z"/>
    <path class="cls-2" d="M217.3,38.2c0-4.2,3.5-5,4.9-5,2.3,0,4.9,1.6,4.9,4.9v5.2c0,3.8-3.2,4.9-4.8,4.9s-4.9-1.2-4.9-4.9v-5.1h0ZM219,43.3c0,2,1.4,3.4,3.3,3.4s3.3-1.2,3.3-3.4v-5.3c0-1.4-.9-3.4-3.3-3.4s-3.2,1.4-3.2,3.5v5.2h-.1Z"/>
    <path class="cls-2" d="M228,46.6c1.6-1.5,3.2-3.1,4.8-4.7,1.3-1.3,2.7-2.5,2.8-4.2,0-1.9-1.3-3.1-3-3.1s-2.9,1.3-3,3.5h-1.5c0-1.4.4-2.6,1.3-3.5,1-1.2,2.4-1.5,3.4-1.5,2.7,0,4.5,2,4.4,4.4,0,1.6-.8,2.7-2.2,4.1-1.6,1.6-3.2,3.2-4.8,4.8h7v1.4h-9.2v-1.3h0Z"/>
    <path class="cls-2" d="M246.8,33.4v1.4h-5.7l-.8,4.3c.5-.4,1.3-.9,2.7-.9,3,0,4.8,2.5,4.8,4.9s-2.1,5.1-5.1,5.1-4.7-1.5-5.1-4.4h1.6c.3,1.9,1.9,3,3.4,3s3.5-1.6,3.5-3.6-1.6-3.6-3.5-3.6-1.8.2-2.8,1.5l-1.3-.3,1.3-7.4h7Z"/>
  </g>
</svg>