<?xml version="1.0" encoding="UTF-8"?>
<svg id="Layer_1" xmlns="http://www.w3.org/2000/svg" version="1.1" viewBox="0 0 247.944 48.979">
  <!-- Generator: Adobe Illustrator 29.2.1, SVG Export Plug-In . SVG Version: 2.1.0 Build 116)  -->
  <defs>
    <style>
      .st0 {
        fill: #ca0538;
      }

      .st1 {
        fill: #41413e;
      }
    </style>
  </defs>
  <g>
    <path class="st0" d="M207.668,46.606c1.603-1.544,3.186-3.108,4.769-4.653,1.329-1.25,2.737-2.463,2.815-4.242,0-1.896-1.29-3.088-2.971-3.088s-2.893,1.309-2.951,3.517h-1.544c.038-1.408.43-2.599,1.25-3.479.958-1.153,2.385-1.465,3.401-1.465,2.678,0,4.457,1.954,4.418,4.436-.059,1.564-.782,2.659-2.209,4.145-1.584,1.583-3.167,3.166-4.77,4.75h7.017v1.387h-9.226v-1.309Z"/>
    <path class="st0" d="M219.353,43.322c0,2.033,1.427,3.422,3.283,3.422,1.506,0,3.285-1.173,3.285-3.422v-5.277c0-1.427-.86-3.422-3.323-3.422-1.896,0-3.245,1.408-3.245,3.5v5.199ZM217.731,38.201c0-4.183,3.479-5.004,4.887-5.004,2.326,0,4.906,1.603,4.906,4.887v5.2c0,3.812-3.244,4.887-4.847,4.887-1.837,0-4.946-1.173-4.946-4.887v-5.082Z"/>
    <path class="st0" d="M228.407,46.593c1.603-1.544,3.186-3.108,4.769-4.653,1.329-1.25,2.737-2.463,2.815-4.242,0-1.896-1.29-3.088-2.971-3.088s-2.893,1.309-2.951,3.517h-1.544c.038-1.408.43-2.599,1.25-3.479.958-1.153,2.385-1.465,3.401-1.465,2.678,0,4.457,1.954,4.418,4.436-.059,1.564-.782,2.659-2.209,4.145-1.584,1.583-3.167,3.166-4.77,4.75h7.017v1.387h-9.226v-1.309Z"/>
    <path class="st0" d="M239.422,43.264c0,1.915,1.368,3.479,3.42,3.479,2.033,0,3.479-1.603,3.479-3.557,0-2.307-1.72-3.597-3.401-3.597-1.524,0-3.498,1.113-3.498,3.654v.021ZM245.032,33.451l-2.893,4.202c-.215.333-.449.665-.685,1.017.352-.236,1.056-.508,1.837-.508,2.385,0,4.653,1.857,4.653,4.887,0,2.834-2.17,5.121-5.043,5.121-1.72,0-3.068-.664-3.909-1.72-.841-.958-1.173-2.248-1.173-3.285,0-1.622.626-2.756,1.271-3.713l4.105-6.001h1.837Z"/>
    <path class="st0" d="M102.939,32.625c-2.258,2.493-5.51,4.071-9.138,4.071-6.814,0-12.338-5.523-12.338-12.336s5.523-12.338,12.338-12.338c3.711,0,7.029,1.646,9.291,4.239h8.485V7.715c-4.444-4.746-10.762-7.715-17.776-7.715-13.454,0-24.358,10.906-24.358,24.359s10.904,24.358,24.358,24.358c7.014,0,13.332-2.97,17.776-7.715v-8.377h-8.638Z"/>
    <path class="st0" d="M164.812,22.008h2.463v-2.488c-1.418-1.498-3.333-2.322-5.393-2.322-4.098,0-7.432,3.334-7.432,7.432s3.334,7.432,7.432,7.432c2.061,0,3.975-.824,5.393-2.322v-2.434h-2.512c-.745.801-1.792,1.26-2.881,1.26-2.17,0-3.935-1.765-3.935-3.935s1.765-3.936,3.935-3.936c1.117,0,2.181.478,2.93,1.314"/>
    <path class="st0" d="M157.947,24.63c0,2.17,1.765,3.935,3.935,3.935,1.089,0,2.136-.459,2.881-1.26h2.512v2.436c-1.418,1.497-3.333,2.321-5.393,2.321-4.098,0-7.432-3.334-7.432-7.432s3.334-7.431,7.432-7.431c2.061,0,3.975.823,5.393,2.321v2.488h-2.463c-.749-.837-1.814-1.313-2.93-1.313-2.17,0-3.935,1.765-3.935,3.935"/>
    <path class="st0" d="M171.541,26.461c0,1.572,1.199,2.732,2.614,2.732s2.615-1.16,2.615-2.752-1.199-2.751-2.615-2.751-2.614,1.16-2.614,2.751v.021ZM168.278,26.421c0-2.653,1.907-5.779,5.877-5.779s5.878,3.126,5.878,5.799-1.907,5.799-5.878,5.799-5.877-3.124-5.877-5.799v-.019Z"/>
    <path class="st0" d="M180.928,20.996h3.046v1.16c.374-.531,1.061-1.533,3.008-1.533,3.675,0,4.049,2.988,4.049,4.462v6.82h-3.263v-5.955c0-1.199-.256-2.261-1.71-2.261-1.612,0-1.868,1.16-1.868,2.28v5.935h-3.263v-10.908Z"/>
    <path class="st0" d="M203.531,27.758c-.59,2.477-2.771,4.502-5.72,4.502-3.301,0-5.837-2.595-5.837-5.838,0-3.204,2.496-5.799,5.759-5.799,2.889,0,5.228,1.906,5.778,4.58h-3.301c-.355-.748-1.002-1.533-2.359-1.533-.767-.04-1.414.256-1.887.767-.452.511-.708,1.219-.708,2.004,0,1.592,1.042,2.771,2.595,2.771,1.357,0,2.005-.786,2.359-1.454h3.322Z"/>
    <path class="st0" d="M204.454,20.996h3.067v1.219c.314-.59.884-1.592,2.771-1.592v3.283h-.118c-1.672,0-2.458.609-2.458,2.141v5.857h-3.263v-10.908Z"/>
    <path class="st0" d="M218.637,25.104c-.079-.511-.748-1.729-2.437-1.729s-2.359,1.219-2.439,1.729h4.876ZM213.723,27.581c.137,1.16,1.238,1.926,2.517,1.926,1.041,0,1.591-.452,1.984-1.023h3.342c-.531,1.22-1.298,2.163-2.222,2.792-.904.649-1.984.983-3.104.983-3.126,0-5.779-2.536-5.779-5.779,0-3.046,2.397-5.857,5.719-5.857,1.672,0,3.105.649,4.128,1.729,1.376,1.475,1.788,3.224,1.533,5.229h-8.118Z"/>
  </g>
  <polygon class="st0" points="223.069 17.36 226.331 17.36 226.331 20.996 227.903 20.996 227.903 23.473 226.331 23.473 226.331 31.904 223.069 31.904 223.069 17.36"/>
  <g>
    <path class="st0" d="M236.322,25.104c-.079-.511-.748-1.729-2.437-1.729s-2.359,1.219-2.437,1.729h4.874ZM231.408,27.581c.137,1.16,1.238,1.926,2.517,1.926,1.041,0,1.591-.452,1.984-1.023h3.342c-.531,1.22-1.297,2.163-2.221,2.792-.905.649-1.985.983-3.105.983-3.126,0-5.779-2.536-5.779-5.779,0-3.046,2.397-5.857,5.719-5.857,1.672,0,3.105.649,4.128,1.729,1.376,1.475,1.788,3.224,1.533,5.229h-8.118Z"/>
    <path class="st1" d="M11.934,1.37v27.726c0,1.579.063,3.789.822,5.619.82,1.831,2.336,3.283,5.24,3.283,2.967,0,4.483-1.327,5.177-3.031.759-1.768.759-4.04.759-5.871V1.37h11.934v27.726c0,7.829-1.706,11.301-4.673,14.333-3.03,3.093-7.261,5.051-13.07,5.051-3.409,0-9.597-.822-13.448-4.988C.822,39.261,0,35.978,0,29.096V1.37h11.934Z"/>
  </g>
  <polygon class="st1" points="38.563 1.371 50.497 1.371 50.497 22.396 63.819 1.371 76.322 1.371 60.914 24.606 77.899 48.094 63.377 48.094 50.497 27.889 50.497 48.094 38.563 48.094 38.563 1.371"/>
  <path class="st1" d="M125.489,32.625c0,5.43,3.346,6.378,4.862,6.378,2.841,0,4.546-2.337,4.546-4.484,0-2.462-1.958-3.22-9.154-6.25-3.285-1.327-11.429-4.609-11.429-13.385,0-9.408,8.523-14.397,16.352-14.397,6.441,0,15.532,3.285,15.722,14.523h-11.808c-.252-1.579-.63-4.547-4.292-4.547-2.084,0-4.105,1.453-4.105,3.663,0,2.147,1.262,2.715,9.661,6.504,8.714,3.915,10.923,7.956,10.923,13.385,0,7.451-3.915,14.965-16.291,14.965-12.249,0-17.174-7.198-16.857-16.354h11.87Z"/>
  <polygon class="st1" points="157.131 4.622 154.261 4.622 154.261 1.359 163.484 1.359 163.484 4.622 160.845 4.622 160.845 15.904 157.131 15.904 157.131 4.622"/>
  <g>
    <path class="st1" d="M164.418,1.359h3.263v4.639c.59-.983,1.691-1.376,2.851-1.376,1.67,0,2.653.59,3.242,1.553.59.943.748,2.241.748,3.637v6.093h-3.263v-5.935c0-.609-.079-1.18-.334-1.592-.275-.413-.708-.689-1.416-.689-.904,0-1.376.413-1.592.886-.235.471-.235,1.002-.235,1.277v6.053h-3.263V1.359Z"/>
    <path class="st1" d="M183.634,9.103c-.078-.511-.748-1.729-2.437-1.729s-2.359,1.219-2.437,1.729h4.874ZM178.72,11.58c.137,1.16,1.238,1.926,2.517,1.926,1.041,0,1.591-.452,1.984-1.023h3.342c-.531,1.219-1.297,2.163-2.221,2.792-.905.649-1.985.983-3.105.983-3.126,0-5.779-2.536-5.779-5.779,0-3.046,2.397-5.857,5.719-5.857,1.672,0,3.107.649,4.128,1.729,1.376,1.475,1.79,3.224,1.533,5.229h-8.118Z"/>
    <path class="st1" d="M195.123,1.359v8.786c0,.492.021,1.179.256,1.75.255.57.727,1.021,1.631,1.021.924,0,1.395-.412,1.612-.943.237-.55.237-1.258.237-1.828V1.359h3.715v8.786c0,2.437-.531,3.519-1.454,4.462-.943.963-2.261,1.572-4.069,1.572-1.061,0-2.988-.255-4.187-1.553-1.199-1.317-1.454-2.339-1.454-4.481V1.359h3.715Z"/>
  </g>
  <polygon class="st1" points="203.868 1.359 207.582 1.359 207.582 7.905 211.73 1.359 215.622 1.359 210.826 8.593 216.114 15.904 211.593 15.904 207.582 9.614 207.582 15.904 203.868 15.904 203.868 1.359"/>
  <g>
    <path class="st1" d="M159.148,43.268c0,1.691,1.042,1.985,1.513,1.985.884,0,1.416-.727,1.416-1.395,0-.767-.609-1.004-2.851-1.947-1.021-.412-3.557-1.434-3.557-4.166,0-2.929,2.653-4.481,5.091-4.481,2.004,0,4.836,1.023,4.895,4.521h-3.676c-.078-.492-.196-1.416-1.336-1.416-.649,0-1.277.452-1.277,1.141,0,.668.393.845,3.007,2.024,2.712,1.219,3.401,2.477,3.401,4.168,0,2.319-1.219,4.658-5.071,4.658-3.813,0-5.347-2.24-5.248-5.091h3.695Z"/>
    <path class="st1" d="M166.635,33.538h3.263v4.639c.59-.983,1.691-1.376,2.851-1.376,1.67,0,2.653.59,3.242,1.553.59.943.748,2.241.748,3.637v6.093h-3.263v-5.935c0-.609-.078-1.18-.334-1.592-.275-.413-.708-.689-1.416-.689-.904,0-1.376.413-1.592.886-.235.471-.235,1.002-.235,1.277v6.053h-3.263v-14.545Z"/>
    <path class="st1" d="M180.72,42.639c0,1.572,1.199,2.732,2.614,2.732s2.615-1.16,2.615-2.752-1.199-2.751-2.615-2.751-2.614,1.16-2.614,2.751v.021ZM177.458,42.599c0-2.653,1.907-5.779,5.877-5.779s5.878,3.126,5.878,5.799-1.907,5.799-5.878,5.799-5.877-3.124-5.877-5.799v-.019Z"/>
  </g>
  <polygon class="st1" points="188.788 37.174 192.168 37.174 193.839 43.956 195.628 37.174 198.379 37.174 200.227 43.956 201.859 37.174 205.219 37.174 201.879 48.084 198.851 48.084 196.984 41.027 195.156 48.084 192.129 48.084 188.788 37.174"/>
</svg>