<svg xmlns="http://www.w3.org/2000/svg" width="261.231" height="373.452" viewBox="0 0 261.231 373.452">
  <path id="Intersection_2" data-name="Intersection 2" d="M-1020.86,383.779c-.453,0-1-.007-1.673-.023-12.068-.3-3.665-1.315-15.73-1.966-4.434-.24-2.723-.751-6.983-1.661-10.933-2.322-1.268-1.814-12.1-.794-2.408.229-4.844.194-7.268.257a15.707,15.707,0,0,1-4.7-.9c-2.294-.684-4.525-1.369-6.3-.486-10.812,5.366-18.314,1.03-25.247-6.887-3.661-4.174-7.33-8.648-13.159-9.75a9.933,9.933,0,0,0-6.719.968c-1.6,1.067-3.174,2.175-4.734,3.3,3.163,1.583,7.17,4.669,7.734,6.653.3,1.07-.723,3.614-1.349,3.688-7.5.864-15.061,2.809-22.585.266-.214.011-.437.031-.638.027-10.369-.335-18.512,4.77-28.877,4.8-4.295.012-9.09-1.107-13.91-2.226-5.347-1.24-10.724-2.481-15.484-2.178-.3.019-.9-.026-1.588-.071-1.242-.082-2.749-.163-3.2.141-3.6,2.443-5.354,3.314-6.84,3.5V369.478c3.452-.389,5.464-.768,6.653-.787,9.306-.157,15.182-1.28,24.5-1.257,6.244.021,5.315,1.459,11.555,1.082,5.757-.349,10.232-2.81,15.962-3.479a16.494,16.494,0,0,0,6.351-2c7.115-4.2,10.776-10.8,12.281-18.76.13-.67.619-3.3,1.055-5.615.616-12.065,1.276-24.134,1.338-36.206.059-11.723-1.245-23.449-1.957-35.475-8.482,4.8-13.267,2.98-19.069-2.113-1.419.856-2.851,1.825-4.372,2.63-5.5,2.926-10.669,2.133-12.615-1.875-1.68-3.451,1.164-10.268,5.417-12.587,7.049-3.843,14.279-7.372,21.207-11.419a43.731,43.731,0,0,0,9.444-7.5c1.346-1.408,1.358-4.09,2.366-7.529-5.175,2.4-8.362,4.287-11.8,5.35-2.852.883-6.043.611-9.011,1.2-3.669.732-7.458,1.381-10.851,2.856a117.529,117.529,0,0,0-15.762,8.2,51.793,51.793,0,0,0-11.181,9.077,67.559,67.559,0,0,1-21.516,16.685v-28.3c1.165-.542,2.328-1.087,3.474-1.66,4.012-2,8.451-3.175,12.349-5.346,3.724-2.074,7-4.954,11.156-7.985-7.493,1.056-14.019,1.385-20.177,3.059a20.51,20.51,0,0,0-6.8,3.87V205.772c2.972-1.143,5.937-2.3,8.879-3.519,2.023-.835,3.478-3.046,5.2-4.621-.3-.452-6.291-1.027-8.878-1.463-1.859-.31-4.421-1.146-5.2-2.523V123.334q1.077-.443,2.156-.883a23.379,23.379,0,0,0,2.953-1.783,45.665,45.665,0,0,0-5.108-2.412V90.919c6.7-1.62,13.568-2.666,20.36-3.944,2.358-.447,5.089.175,7.148-.774,4.065-1.875,9.031-3.766,5.388-10.131-.536-.934-6.439-3.9-7.4-4.229-7.462-2.552-12.968,2.482-19.184,4.712-1.8.644-3.517,1.571-5.35,2.1a8.495,8.495,0,0,0-.961.353V61.91c.584-.4,1.169-.783,1.74-1.155,5.972-3.894,12.142-7.524,18.446-10.859,3.867-2.047,5.512-5.132,6.178-9.128.856-5.135,3.735-7.827,8.773-9.882,8.664-3.529,16.738-8.5,25.165-12.652a67.577,67.577,0,0,1,12.532-5.109c5.692-1.49,9.458,1.062,11.4,6.731.9,2.63,1.763,5.271,3.065,9.178,5.972-3.864,11.65-7.428,17.217-11.156,8.365-5.605,16.936-8.065,26.394-2.587,3.793,2.2,6.133,5.583,4.47,9.493-1.365,3.214-3.688,6.813-9.092,4.529-4.031-1.7-11.767,4.93-12.171,9.357-.413,4.455-3.334,6.794-7.264,8.6-10.563,4.871-20.987,10.049-31.469,15.107-2.131,1.751-1.821,2.723,1.016,2.9,3.081-.906,6.4-1.354,9.2-2.8,15.228-7.852,30.162-16.291,45.526-23.858,12.641-6.224,25.08-13.551,40.046-12.831,3.755.179,7.537.681,8.311,4.863.806,4.362.638,8.825-4.641,11.132-13.617,5.949-27.2,11.98-40.689,18.2-8.194,3.775-16.213,7.934-24.277,11.988-1.677.841-3.209,1.976-4.809,2.976-1.358,1.382-1.024,1.938.513,1.919,5.872-1.331,12.038-1.926,17.559-4.136,14.24-5.7,28.118-12.3,42.312-18.131,5.194-2.136,10.672-1.525,15.749,1.4,1.164.673,2.957,1.253,4.078.837,6.863-2.549,13.474-5.876,20.453-7.992,5.306-1.61,11.018-2.09,16.593-2.479,1.72-.121,5.082,1.677,5.1,2.654.089,4.1.486,9.162-1.665,12.08-2.571,3.5-7.412,5.654-11.653,7.521-5.851,2.583-12.069,4.334-18.111,6.5-.735.268-1.351.883-1.564,2.564,5.016-1,10.1-1.759,15.037-3.051,6.206-1.626,11.228.715,14.991,4.988,1.646,1.868,2.3,6.1,1.342,8.412-1.385,3.345-5.407,4.428-8.905,2.988-4.829-1.981-8.551.031-12.555,1.411.027.464,9.905,2.6,14.835,3.043,5.28.475,10.571.76,15.859,1.1a7.893,7.893,0,0,1,7.626,6.233c.895,3.473.883,6.944-3.47,8.839a56.636,56.636,0,0,0-11.9,6.447c-2.417,1.845-3.973,5.008-5.38,7.844-.4.805.835,2.758,1.777,3.75.432.456,2-.014,2.992-.294.817-.234,1.51-1.082,2.311-1.171,3.5-.386,7.86-2.008,10.341-.537,3.88,2.3,8.474,5.82,6.654,11.827a11.126,11.126,0,0,1-10.471,8.3c-10.267.392-18.394,6.119-27.165,10.088-7.1,3.214-13.684,7.606-20.345,11.715a9.2,9.2,0,0,0-3.509,4.407c-.4,1.078.346,3.051,1.249,3.973a3.887,3.887,0,0,0,3.626.366c9.54-5.031,18.921-10.365,28.491-15.337a28.257,28.257,0,0,1,9.342-3.055c8.392-1.036,16.838-1.833,25.286-2.113,2.311-.077,6.517,1.8,6.661,3.128.284,2.638-.883,6.4-2.839,8.093a36.134,36.134,0,0,1-11.444,6.3c-13.2,4.714-21.135,15.648-30.829,24.511.159.579,6.19,1.688,8.746.809,2.886-1,4.311-.179,5.194,2.33,1.377,3.922,2.221,7.743-1.354,11.2-5.917,5.724-11.212,12.209-17.647,17.248-5.483,4.287-11.7,7.455-19.625,6.863-7.287-.541-13.531,3.883-19.516,7.918a43.9,43.9,0,0,1-5.467,2.645c-6.529,3.175-13.317,5.922-19.476,9.7-4.6,2.821-9.308,4.592-14.388,3.779-2.055-.331-4.91-3.218-5.214-5.261-.514-3.489-1.736-7.6,2.2-10.687,4.127-3.233,10.781-12.042,10.326-12.774-2.093.9-4.7,1.284-6.2,2.775-6.618,6.568-12.967,13.407-19.278,20.275a5.383,5.383,0,0,0-1.221,3.809c1.288,10.835-2.9,20.939-3.977,31.441a100.85,100.85,0,0,0-.1,12.213c.167,8.832-.467,17.8.91,26.453a64.909,64.909,0,0,0,4.031,13.466c.661,2.778,1.355,5,2.028,7.75,1.3,5.346,5.455,8.816,10.465,10.275,9.58,2.79,19.247,7.331,29.43,3.992,3.576-1.171,10.47-1.652,19.176,1.292,8.549,2.891,30.726,4.913,31.13,4.552,6.031-5.33,19.17,5.887,17.547,7.232-5.505,4.577-15.948,2.42-23.946,3.447-5.253.673-2.935,1.153-6.454,1.153ZM-1212.216,40.454a58.529,58.529,0,0,1,6.7-.572,12.868,12.868,0,0,1,3.7.059c2.723.856,4.665,2.377,1.615,5.042-3.972,3.471-7.215,8.693-12.019,10.493Z" transform="translate(1213.216 -11.327)" fill="none" stroke="#464646" stroke-width="2"/>
</svg>
