<svg xmlns="http://www.w3.org/2000/svg" width="166.426" height="72.8" viewBox="0 0 166.426 72.8">
  <g id="Group_478" data-name="Group 478" transform="translate(-966 -3784.221)">
    <path id="Path_759" data-name="Path 759" d="M19.024,149.634c1.015-.22,1.645-1.289,2.433-1.977.553-.483.2-.759-.293-.914a2.337,2.337,0,0,0-.671-.011,5.053,5.053,0,0,0-3.309.981c-.253.253-.817,2.5,1.84,1.921" transform="translate(961.004 3643.498)" fill="#faba05"/>
    <path id="Path_758" data-name="Path 758" d="M60.056,166.034c-1.531.051-3.063.2-4.584.383a5.128,5.128,0,0,0-1.694.554c-1.735.9-3.436,1.868-5.165,2.78a.7.7,0,0,1-.657-.066.857.857,0,0,1-.226-.72,1.669,1.669,0,0,1,.636-.8,33.509,33.509,0,0,1,3.688-2.124c1.59-.719,3.063-1.758,4.925-1.829a2.017,2.017,0,0,0,1.9-1.5c.33-1.089-.5-1.727-1.206-2.144-.45-.267-1.24.028-1.875.1-.145.016-.271.17-.419.212-.179.051-.464.136-.542.054-.171-.18-.395-.534-.322-.68a3.973,3.973,0,0,1,.975-1.422,10.267,10.267,0,0,1,2.158-1.169c.789-.343.791-.973.629-1.6a1.431,1.431,0,0,0-1.382-1.13c-.959-.062-1.918-.114-2.875-.2a13.012,13.012,0,0,1-2.689-.552,2.925,2.925,0,0,1,2.276-.256,1.2,1.2,0,0,0,1.615-.542,1.751,1.751,0,0,0-.243-1.525,2.584,2.584,0,0,0-2.718-.9c-.9.234-1.817.372-2.726.553.039-.3.15-.416.284-.465,1.1-.392,2.223-.71,3.283-1.178a5.183,5.183,0,0,0,2.112-1.363,3.845,3.845,0,0,0,.3-2.19c0-.177-.614-.5-.925-.481a13.674,13.674,0,0,0-3.008.449c-1.265.384-2.464.987-3.708,1.449a1.023,1.023,0,0,1-.739-.152,3.161,3.161,0,0,0-2.855-.254c-2.573,1.057-5.089,2.254-7.67,3.287a21.033,21.033,0,0,1-3.183.75c-.279,0-.339-.1-.093-.348.29-.181.568-.387.872-.54,1.462-.735,2.916-1.489,4.4-2.173,2.446-1.128,4.908-2.221,7.376-3.3.957-.418.987-1.227.841-2.018-.14-.758-.826-.849-1.507-.882-2.713-.13-4.968,1.2-7.26,2.326-2.785,1.372-5.492,2.9-8.253,4.325a9.4,9.4,0,0,1-1.667.507c-.514-.032-.571-.208-.184-.525,1.9-.917,3.79-1.856,5.7-2.739a1.892,1.892,0,0,0,1.317-1.559c.073-.8,1.476-2.005,2.206-1.7.98.414,1.4-.238,1.648-.821.3-.709-.123-1.323-.81-1.721-1.715-.993-3.269-.547-4.785.469-1.009.676-2.038,1.322-3.121,2.022-.236-.708-.393-1.187-.556-1.664a1.586,1.586,0,0,0-2.067-1.22,12.263,12.263,0,0,0-2.272.926c-1.528.753-2.991,1.654-4.562,2.294a2.214,2.214,0,0,0-1.591,1.792,2.088,2.088,0,0,1-1.12,1.655c-1.143.6-2.261,1.263-3.344,1.969a4.02,4.02,0,0,0-1.463,1.345,2.57,2.57,0,0,0-.08,1.884c.289.727.925.152,1.4.015.332-.1.643-.263.97-.38,1.127-.4,2.125-1.317,3.478-.854a6.006,6.006,0,0,1,1.342.767c.66,1.154-.24,1.5-.977,1.837a5.894,5.894,0,0,1-1.3.14c-1.458.274-2.934.49-4.359.889a15.6,15.6,0,0,0-6.765,3.875,3.114,3.114,0,0,0-.774,1.691c-.108.732.483,1.031,1.182.719,1.071-.478,2.157-.921,3.213-1.429a4.882,4.882,0,0,1,4.738.363,4.237,4.237,0,0,1-.535.323c-1.574.64-3.13,1.33-4.732,1.892a23.887,23.887,0,0,0-7.017,3.868c-.377.3-.839,1.141-.706,1.32.573.772.029,1.208-.287,1.748a6.372,6.372,0,0,0-.437.847c-.473,1.178-.02,1.859,1.229,1.744a4.137,4.137,0,0,0,1.607-.513,37.288,37.288,0,0,1,7.116-2.85c.685-.219,1.308-.26,1.539.575.217.782-.36,1.014-.962,1.282-1.326.59-2.628,1.237-3.919,1.9-1.343.693-2.657,1.442-3.991,2.155-1.221.652-2.481,1.239-3.664,1.951-.636.383-.579,1.877.049,2.041a4.263,4.263,0,0,0,2.127.091,22.259,22.259,0,0,0,7.156-3.419c1.02-.746,2.133-1.368,3.224-2.012.463-.274.915-.421,1.269.271.132.257.607.413.949.47a12.223,12.223,0,0,1,1.61.265c-.312.286-.576.686-.942.838-2.036.841-4.133,1.542-6.139,2.444-2.22,1-3.36,2.476-2.433,5.085.205.576.549.808,1.051.7a13.519,13.519,0,0,0,5.344-2.11,6.072,6.072,0,0,1,1.8-1.138,30.975,30.975,0,0,1,3.658-.554,21.64,21.64,0,0,1-2.022,1.447c-.707.394-1.512.607-2.239.969-1.341.669-2.807,1.138-3.7,2.515a3.52,3.52,0,0,0-.43,2.748,2.435,2.435,0,0,0,2.515.574,11.75,11.75,0,0,0,4.884-3.431,9.394,9.394,0,0,1,2.027-1.646,21.311,21.311,0,0,1,2.857-1.487,9.67,9.67,0,0,1,1.967-.518,16.4,16.4,0,0,0,1.634-.218,19.823,19.823,0,0,0,2.139-.97c-.183.624-.185,1.109-.429,1.365a7.932,7.932,0,0,1-1.712,1.36c-1.256.734-2.567,1.373-3.845,2.07a2.116,2.116,0,0,0-.982,2.282c.353.726,1.289.87,2.287.34.276-.146.535-.322.793-.477a2.534,2.534,0,0,0,3.457.383c.129,2.18.365,4.306.355,6.431-.011,2.189-.131,4.377-.243,6.564-.079.42-.168.9-.191,1.018a4.731,4.731,0,0,1-2.227,3.4,2.989,2.989,0,0,1-1.151.363c-1.039.121-1.85.567-2.894.631-1.131.068-.963-.193-2.095-.2-1.689,0-2.754.2-4.441.228a32.325,32.325,0,0,1-3.917.3c-.792.008-3.078,1.095-2.684,1.391.42.316,2.912.327,3.534.305,1.934-.065,1.467.61,3.1-.5a3.321,3.321,0,0,1,.868-.013c1.641-.1,3.687.8,5.329.8,1.879-.006,3.355-.931,5.235-.87.037,0,.077,0,.116,0a9.161,9.161,0,0,0,4.094-.048c.114-.013.3-.475.245-.669a3.167,3.167,0,0,0-1.4-1.206c.283-.2.568-.406.858-.6a1.8,1.8,0,0,1,1.218-.176,4.438,4.438,0,0,1,2.385,1.768c1.257,1.435,2.617,2.221,4.577,1.248.545-.27,1.323.269,1.995.252.439-.011.881,0,1.318-.047,1.964-.185.212-.277,2.194.144.772.165.462.257,1.266.3,2.187.118.664.3,2.852.356,1.074.026.4-.067,1.475-.2,1.45-.186,3.343.2,4.341-.625.294-.244-2.088-2.278-3.181-1.311a28.18,28.18,0,0,1-5.643-.825,5.81,5.81,0,0,0-3.477-.234c-1.846.605-3.6-.218-5.335-.724a2.6,2.6,0,0,1-1.9-1.863c-.122-.5-.248-.9-.367-1.405a11.743,11.743,0,0,1-.731-2.441,34.868,34.868,0,0,1-.165-4.8,18.247,18.247,0,0,1,.018-2.214c.2-1.9.954-3.735.721-5.7a.976.976,0,0,1,.221-.69c1.144-1.245,2.3-2.485,3.495-3.676a3.589,3.589,0,0,1,1.124-.5A7.863,7.863,0,0,1,37.4,182.09c-.714.559-.492,1.3-.4,1.938a1.437,1.437,0,0,0,.945.954,3.8,3.8,0,0,0,2.608-.685c1.117-.684,2.347-1.182,3.531-1.758a7.981,7.981,0,0,0,.991-.48,5.826,5.826,0,0,1,3.538-1.435,5.007,5.007,0,0,0,3.558-1.244,43.25,43.25,0,0,0,3.2-3.127,1.716,1.716,0,0,0,.245-2.031c-.16-.455-.418-.6-.942-.423a2.744,2.744,0,0,1-1.586-.147c1.758-1.607,3.2-3.589,5.589-4.444a6.541,6.541,0,0,0,2.074-1.141,1.914,1.914,0,0,0,.515-1.467c-.026-.241-.789-.581-1.208-.567" transform="translate(966 3645.584)" fill="#faba05"/>
    <path id="Path_760" data-name="Path 760" d="M107.192,139.872c3.436,0,6.236.772,8.109,2.244a7.384,7.384,0,0,1,2.862,6.3,7.262,7.262,0,0,1-3.741,6.488l-1.347.763,1.46.516a7.368,7.368,0,0,1,5.343,7.531,9.468,9.468,0,0,1-2.988,7.133c-3.013,2.526-5.069,2.885-11.079,2.885H94.934V139.872Zm-4.661,13.391h3.9a7.048,7.048,0,0,0,2.684-.4,3.192,3.192,0,0,0,1.835-3.116,2.984,2.984,0,0,0-1.8-2.981,6.827,6.827,0,0,0-2.714-.393h-3.9v6.891m0,13.964h4.947a7.321,7.321,0,0,0,2.946-.486,3.61,3.61,0,0,0,2.239-3.6,3.308,3.308,0,0,0-2.147-3.319,8.044,8.044,0,0,0-3.038-.437h-4.947v7.844m4.661-28.06H94.229v35.266H105.81c5.957,0,8.292-.334,11.533-3.05a10.151,10.151,0,0,0,3.24-7.673,8.121,8.121,0,0,0-5.813-8.2,7.965,7.965,0,0,0,4.1-7.1,8.114,8.114,0,0,0-3.145-6.862c-2-1.573-4.909-2.383-8.531-2.383m-3.956,13.391v-5.48h3.192a6.248,6.248,0,0,1,2.431.334,2.3,2.3,0,0,1,1.382,2.335,2.467,2.467,0,0,1-1.43,2.478,6.372,6.372,0,0,1-2.383.334Zm0,13.963v-6.433h4.241a7.423,7.423,0,0,1,2.764.381,2.609,2.609,0,0,1,1.715,2.669,2.92,2.92,0,0,1-1.811,2.955,6.679,6.679,0,0,1-2.669.429Z" transform="translate(938.234 3645.721)" fill="#fff"/>
    <path id="Path_761" data-name="Path 761" d="M146.4,139.872c3.979,0,10.64,0,15.014,6.287a17.275,17.275,0,0,1,3.1,10.545c0,5-1.341,9.147-3.879,12.006-2.954,3.329-7.52,5.017-13.572,5.017H135.433V139.872Zm-3.374,27.355h4.565c6.018,0,9.332-3.686,9.332-10.38a13.17,13.17,0,0,0-1.834-6.92c-1.595-2.392-4.032-3.555-7.45-3.555H143.03v20.855m3.374-28.06H134.728v35.266h12.343c13.391,0,18.156-8.1,18.156-17.729a18.031,18.031,0,0,0-3.24-10.961c-4.575-6.577-11.628-6.577-15.584-6.577m-2.669,27.355V147.078h3.908c4,0,5.814,1.668,6.863,3.241a12.422,12.422,0,0,1,1.715,6.529c0,5-1.907,9.674-8.626,9.674Z" transform="translate(926.3 3645.721)" fill="#fff"/>
    <path id="Path_767" data-name="Path 767" d="M192.365,138.926c4.906,0,10.65,2.519,11.131,9.55h-7.58c-.254-1.317-.949-3.431-3.837-3.431a3.6,3.6,0,0,0-3.8,3.47c0,2.075,1.174,2.6,7.707,5.552,6.519,2.929,7.828,5.792,7.828,9.46,0,3.955-1.505,10.59-11.589,10.59-4.09,0-7.208-1.082-9.27-3.216a10.894,10.894,0,0,1-2.759-7.716h7.583c.329,4.672,3.924,4.813,4.351,4.813a4.121,4.121,0,0,0,4.136-4.089c0-2.279-1.605-2.955-6.927-5.194l-.428-.18c-2.447-.988-8.18-3.3-8.18-9.447,0-6.6,6-10.16,11.637-10.16m0-.705c-5.909,0-12.343,3.765-12.343,10.866,0,6.624,6.147,9.1,8.626,10.1,5.433,2.287,6.909,2.859,6.909,4.718a3.4,3.4,0,0,1-3.431,3.383c-1.144,0-3.67-.715-3.67-4.813H179.5c-.238,6.91,3.479,12.343,12.724,12.343,9.341,0,12.295-5.672,12.295-11.3,0-4.1-1.668-7.148-8.245-10.1-6.338-2.859-7.291-3.288-7.291-4.908a2.937,2.937,0,0,1,3.1-2.764c2.765,0,3.05,2.24,3.241,3.431h8.912c-.143-8.482-7.005-10.961-11.867-10.961" transform="translate(913.111 3646)" fill="#fff"/>
    <path id="Path_762" data-name="Path 762" d="M94.257,206.083V191.842h3.118l4.425,11.026,4.369-11.026h3.1v14.241h-2.1l.058-12.01-4.715,12.01h-1.483l-4.715-12.01.058,12.01Z" transform="translate(938.226 3630.199)" fill="#fff"/>
    <path id="Path_763" data-name="Path 763" d="M128.549,207.529h-2V205.7a4.225,4.225,0,0,1-3.888,2.136,5.545,5.545,0,0,1,0-11.085,4.222,4.222,0,0,1,3.888,2.156V197.06h2Zm-9.256-5.2a3.593,3.593,0,0,0,3.656,3.637,3.424,3.424,0,0,0,3.253-2.077,3.942,3.942,0,0,0,.365-1.559,3.321,3.321,0,0,0-.309-1.56,3.492,3.492,0,0,0-3.347-2.154,3.581,3.581,0,0,0-3.618,3.695Z" transform="translate(931.438 3628.753)" fill="#fff"/>
    <path id="Path_764" data-name="Path 764" d="M135.234,197.06h1.887v1.54a3.263,3.263,0,0,1,3.117-1.849v2H140.1c-1.885,0-2.868,1.039-2.868,3.116v5.659h-2Z" transform="translate(926.151 3628.753)" fill="#fff"/>
    <path id="Path_765" data-name="Path 765" d="M143.738,191.842h2.02v7.909l4.1-4.137h2.426l-4.657,4.6,4.792,5.87h-2.329l-4.331-5.389v5.389h-2.02Z" transform="translate(923.645 3630.2)" fill="#fff"/>
    <path id="Path_768" data-name="Path 768" d="M156.732,202.931a3.412,3.412,0,0,0,3.521,3.193,3.25,3.25,0,0,0,3.022-1.769h2.078a5.772,5.772,0,0,1-2.117,2.6,5.323,5.323,0,0,1-2.984.884,5.543,5.543,0,1,1,3.85-9.545,5.647,5.647,0,0,1,1.578,4.639Zm6.967-1.559a3.375,3.375,0,0,0-3.465-2.905,3.329,3.329,0,0,0-3.463,2.905Z" transform="translate(920.412 3628.753)" fill="#fff"/>
    <path id="Path_769" data-name="Path 769" d="M172.185,197.173H170.3v-1.56h1.885v-3.771h2v3.771h2.021v1.56h-2.021v8.91h-2Z" transform="translate(915.818 3630.2)" fill="#fff"/>
    <rect id="Rectangle_195" data-name="Rectangle 195" width="2.27" height="14.241" transform="translate(1032.483 3838.199)" fill="#fff"/>
    <path id="Path_770" data-name="Path 770" d="M100.153,219.968h1.887v1.617a3.609,3.609,0,0,1,3.54-1.926c3.348.04,4.233,2.464,4.233,4.638v6.14h-2.019V224.76c0-1.887-.732-3.233-2.772-3.214-1.962.019-2.868,1.251-2.868,3.06v5.831h-2Z" transform="translate(936.488 3622.003)" fill="#fff"/>
    <path id="Path_766" data-name="Path 766" d="M116.286,220.081H114.4v-1.559h1.885V214.75h2v3.771h2.021v1.559h-2.021v8.91h-2Z" transform="translate(932.29 3623.449)" fill="#fff"/>
    <path id="Path_771" data-name="Path 771" d="M124.818,225.839a3.413,3.413,0,0,0,3.521,3.193,3.25,3.25,0,0,0,3.022-1.769h2.078a5.772,5.772,0,0,1-2.117,2.6,5.322,5.322,0,0,1-2.984.884,5.543,5.543,0,1,1,3.85-9.545,5.652,5.652,0,0,1,1.578,4.639Zm6.967-1.559a3.375,3.375,0,0,0-3.465-2.905,3.331,3.331,0,0,0-3.464,2.905Z" transform="translate(929.816 3622.003)" fill="#fff"/>
    <rect id="Rectangle_196" data-name="Rectangle 196" width="2.001" height="14.241" transform="translate(1064.679 3838.199)" fill="#fff"/>
    <rect id="Rectangle_197" data-name="Rectangle 197" width="2.001" height="14.241" transform="translate(1067.985 3838.199)" fill="#fff"/>
    <path id="Path_772" data-name="Path 772" d="M149.365,214.75h2v2.117h-2Zm0,3.771h2v10.469h-2Z" transform="translate(921.987 3623.449)" fill="#fff"/>
    <path id="Path_773" data-name="Path 773" d="M165.017,229.225a5.56,5.56,0,0,1-1.232,3.888,5.892,5.892,0,0,1-4.408,1.905,5.086,5.086,0,0,1-5.2-3.484h2.309a3.156,3.156,0,0,0,1.155,1.213,3.4,3.4,0,0,0,1.81.558,3.518,3.518,0,0,0,3.56-3.637V228.59a4.1,4.1,0,0,1-3.773,2.155,5.544,5.544,0,0,1,0-11.085,4.194,4.194,0,0,1,3.773,2.079v-1.771h2Zm-9.179-4.021a3.633,3.633,0,0,0,6.2,2.617,3.759,3.759,0,0,0,1.021-2.56,4.037,4.037,0,0,0-.846-2.482,3.346,3.346,0,0,0-2.752-1.231,3.547,3.547,0,0,0-3.618,3.637Z" transform="translate(920.67 3622.003)" fill="#fff"/>
    <path id="Path_774" data-name="Path 774" d="M173.4,225.839a3.412,3.412,0,0,0,3.521,3.193,3.25,3.25,0,0,0,3.022-1.769h2.078a5.772,5.772,0,0,1-2.117,2.6,5.323,5.323,0,0,1-2.984.884,5.543,5.543,0,1,1,3.85-9.545,5.647,5.647,0,0,1,1.578,4.639Zm6.967-1.559a3.375,3.375,0,0,0-3.465-2.905,3.329,3.329,0,0,0-3.463,2.905Z" transform="translate(915.501 3622.003)" fill="#fff"/>
    <path id="Path_775" data-name="Path 775" d="M188.484,219.968h1.887v1.617a3.609,3.609,0,0,1,3.54-1.926c3.348.04,4.233,2.464,4.233,4.638v6.14h-2.019V224.76c0-1.887-.732-3.233-2.772-3.214-1.962.019-2.868,1.251-2.868,3.06v5.831h-2Z" transform="translate(910.46 3622.003)" fill="#fff"/>
    <path id="Path_776" data-name="Path 776" d="M214.407,226.761a5.582,5.582,0,1,1,0-3.04h-2.059a3.427,3.427,0,0,0-3.272-2.194,3.379,3.379,0,0,0-2.559,1.02,3.806,3.806,0,0,0-1.02,2.656,3.536,3.536,0,0,0,3.579,3.674,3.472,3.472,0,0,0,3.272-2.117Z" transform="translate(906.037 3622.003)" fill="#fff"/>
    <path id="Path_777" data-name="Path 777" d="M222.376,225.839a3.413,3.413,0,0,0,3.521,3.193,3.25,3.25,0,0,0,3.022-1.769H231a5.772,5.772,0,0,1-2.117,2.6,5.322,5.322,0,0,1-2.984.884,5.543,5.543,0,1,1,3.85-9.545,5.652,5.652,0,0,1,1.578,4.639Zm6.967-1.559a3.375,3.375,0,0,0-3.465-2.905,3.33,3.33,0,0,0-3.464,2.905Z" transform="translate(901.069 3622.003)" fill="#fff"/>
  </g>
</svg>
