<svg xmlns="http://www.w3.org/2000/svg" width="164.253" height="54.784" viewBox="0 0 164.253 54.784">
  <g id="Group_467" data-name="Group 467" transform="translate(-51 -25.706)">
    <path id="Path_639" data-name="Path 639" d="M18.332,64.764a6.751,6.751,0,1,1,.084-8.956H23.06V51.131a13.331,13.331,0,1,0,0,18.217V64.764Z" transform="translate(51 -1.526)" fill="#f7f7f4"/>
    <g id="Group_449" data-name="Group 449" transform="translate(74.689 37.553)">
      <path id="Path_635" data-name="Path 635" d="M76.8,50.288l-.73,1.033-.027-1.227V47.751H69.63v25.04h6.928V59.13c0-2.492.5-5.805,4.822-5.805,3.949,0,4.456,3.078,4.456,5.759V72.791h6.923V57.033c0-4.638-1.593-10.166-9.187-10.166-4.355,0-5.869,2.141-6.773,3.421" transform="translate(-45.061 -39.066)" fill="#bfbfb8"/>
      <path id="Path_636" data-name="Path 636" d="M113.083,50.288l-.73,1.033-.027-1.227V47.751h-6.412v25.04h6.928V59.13c0-2.492.5-5.805,4.822-5.805,3.949,0,4.456,3.078,4.456,5.759V72.791h6.923V57.033c0-4.638-1.593-10.166-9.187-10.166-4.355,0-5.869,2.141-6.773,3.421" transform="translate(-56.198 -39.066)" fill="#bfbfb8"/>
      <path id="Path_633" data-name="Path 633" d="M154.544,46.868a13.382,13.382,0,0,0,.14,26.761,12.138,12.138,0,0,0,7.125-2.252,14.652,14.652,0,0,0,4.869-5.884H159.6a5.546,5.546,0,0,1-4.913,2.422c-3.347,0-6.021-2.068-6.36-4.919l-.053-.449H167.6c.527-4.741-.642-8.575-3.569-11.711a12.879,12.879,0,0,0-9.485-3.967m-6.193,10.617.071-.462a6.506,6.506,0,0,1,12.339,0l.071.463Z" transform="translate(-67.089 -39.066)" fill="#bfbfb8"/>
      <path id="Path_634" data-name="Path 634" d="M188.71,60.249a7.525,7.525,0,0,1,1.777-5.017,5.908,5.908,0,0,1,4.791-1.951h0a6.139,6.139,0,0,1,5.818,3.631h7.069a13.318,13.318,0,0,0-13.185-10.044A13.149,13.149,0,0,0,181.737,60.2a13.285,13.285,0,0,0,13.43,13.426A13.465,13.465,0,0,0,208.2,63.771h-7.114a6.312,6.312,0,0,1-5.827,3.442c-3.855,0-6.548-2.864-6.548-6.965" transform="translate(-79.471 -39.066)" fill="#bfbfb8"/>
      <path id="Path_637" data-name="Path 637" d="M228.557,35.611H221.63V69.265h6.927V49.287h3.723V44.225h-3.723Z" transform="translate(-91.716 -35.611)" fill="#bfbfb8"/>
      <path id="Path_638" data-name="Path 638" d="M38.908,76.949a6.751,6.751,0,1,0-.084-8.956H34.18V63.316a13.331,13.331,0,1,1,0,18.217V76.949Z" transform="translate(-34.18 -42.819)" fill="#bfbfb8"/>
    </g>
    <g id="Group_448" data-name="Group 448" transform="translate(52.369 25.706)">
      <path id="Path_640" data-name="Path 640" d="M18.588,31.194a8.417,8.417,0,0,1-7.78,4.852,8.765,8.765,0,1,1-.023-17.53,8.609,8.609,0,0,1,7.8,4.943H16.551a6.8,6.8,0,0,0-5.766-3.272,6.9,6.9,0,0,0-6.933,7.071,6.894,6.894,0,0,0,12.7,3.935Z" transform="translate(-1.975 -18.517)" fill="#f7f7f4"/>
      <path id="Path_641" data-name="Path 641" d="M26.609,31.6a6.533,6.533,0,0,1,13.066.022A6.357,6.357,0,0,1,33.13,38.1a6.351,6.351,0,0,1-6.521-6.477Zm1.67.046a4.932,4.932,0,1,0,0-.024Z" transform="translate(-9.536 -20.544)" fill="#f7f7f4"/>
      <path id="Path_642" data-name="Path 642" d="M46.872,25.464h1.6c0,.685,0,1.373-.024,2.2a4.614,4.614,0,0,1,4.578-2.541c3.822.046,5.172,2.655,5.172,5.653v7H56.529v-6.66c0-2.653-1.189-4.463-3.958-4.416-2.541.023-4.005,1.556-4.005,4.12v6.956H46.872Z" transform="translate(-15.756 -20.543)" fill="#f7f7f4"/>
      <path id="Path_643" data-name="Path 643" d="M77.486,33.611a6.545,6.545,0,1,1,0-3.891h-1.74a4.882,4.882,0,0,0-7.94-1.647,5.051,5.051,0,0,0-1.4,3.546,4.784,4.784,0,0,0,4.851,4.921,4.642,4.642,0,0,0,4.463-2.929Z" transform="translate(-21.233 -20.544)" fill="#f7f7f4"/>
      <path id="Path_644" data-name="Path 644" d="M84.859,25.464h1.6v2.013A4.193,4.193,0,0,1,90.4,25.12v1.671h-.16c-2.38,0-3.706,1.487-3.706,4.28v6.7H84.859Z" transform="translate(-27.415 -20.544)" fill="#f7f7f4"/>
      <path id="Path_645" data-name="Path 645" d="M94.2,32.1a4.689,4.689,0,0,0,4.806,4.554,4.551,4.551,0,0,0,4.233-2.539H105a6.53,6.53,0,0,1-2.5,3,6.436,6.436,0,0,1-3.5,1.006,6.359,6.359,0,0,1-6.5-6.475,6.469,6.469,0,1,1,12.907.456Zm9.543-1.349a4.8,4.8,0,0,0-9.519,0Z" transform="translate(-29.764 -20.543)" fill="#f7f7f4"/>
      <path id="Path_646" data-name="Path 646" d="M113.477,18.947h1.67v4.623h2.7v1.349h-2.7V35.88h-1.67Z" transform="translate(-36.2 -18.649)" fill="#f7f7f4"/>
      <path id="Path_647" data-name="Path 647" d="M120.9,32.1a4.688,4.688,0,0,0,4.806,4.554,4.551,4.551,0,0,0,4.233-2.539H131.7a6.525,6.525,0,0,1-2.5,3,6.436,6.436,0,0,1-3.5,1.006,6.358,6.358,0,0,1-6.5-6.475,6.469,6.469,0,1,1,12.907.456Zm9.543-1.349a4.8,4.8,0,0,0-9.519,0Z" transform="translate(-37.958 -20.543)" fill="#f7f7f4"/>
    </g>
  </g>
</svg>
