<svg xmlns="http://www.w3.org/2000/svg" width="182.458" height="130" viewBox="0 0 182.458 130">
  <path id="Intersection_1" data-name="Intersection 1" d="M-1091.047,145V125.3h22.382a31.846,31.846,0,0,0,23.678,10.546A31.924,31.924,0,0,0-1019,122.5V145Zm-109.411-83.886A62.921,62.921,0,0,1-1181.481,16h88.248q1,.974,1.947,1.99V40.132h-21.986a31.855,31.855,0,0,0-24.074-10.984,31.966,31.966,0,0,0-31.964,31.965,31.966,31.966,0,0,0,31.964,31.964,31.849,31.849,0,0,0,23.679-10.545h22.381v21.7a62.912,62.912,0,0,1-46.06,19.989A63.111,63.111,0,0,1-1200.458,61.114Zm155.471,10.8A31.855,31.855,0,0,0-1069.061,82.9h-21.986V60.755a62.916,62.916,0,0,1,46.06-19.988A62.9,62.9,0,0,1-1019,46.348V85.262A31.924,31.924,0,0,0-1044.986,71.915Z" transform="translate(1200.958 -15.5)" fill="#51514d" stroke="rgba(0,0,0,0)" stroke-width="1"/>
</svg>
