<svg xmlns="http://www.w3.org/2000/svg" xmlns:xlink="http://www.w3.org/1999/xlink" width="46.446" height="46.873" viewBox="0 0 46.446 46.873">
  <defs>
    <clipPath id="clip-path">
      <rect id="Rectangle_188" data-name="Rectangle 188" width="46.446" height="46.873" fill="#e3e3df"/>
    </clipPath>
  </defs>
  <g id="Group_475" data-name="Group 475" transform="translate(0 0)">
    <g id="Group_474" data-name="Group 474" transform="translate(0 0)" clip-path="url(#clip-path)">
      <path id="Path_715" data-name="Path 715" d="M1.254,46.873a1.255,1.255,0,0,1-1.174-1.7L5.287,31.4A21.717,21.717,0,1,1,24.726,43.44a21.451,21.451,0,0,1-8.753-1.863L1.686,46.8a1.261,1.261,0,0,1-.431.075M24.726,2.509A19.2,19.2,0,0,0,7.766,30.732a1.253,1.253,0,0,1,.065,1.032L3.4,43.5l12.2-4.457a1.259,1.259,0,0,1,.966.044,19.012,19.012,0,0,0,8.165,1.843,19.211,19.211,0,0,0,0-38.422" transform="translate(0 0)" fill="#e3e3df"/>
      <path id="Path_716" data-name="Path 716" d="M20.124,19.991a7.02,7.02,0,0,1-2.272,5.445,7.588,7.588,0,0,1-4.159,2.013l-1.885-3.256a6.058,6.058,0,0,0,3.388-1.33c.771-.642,1.071-1.33,1.2-2.872h-4.93V11.377h8.659Zm11.446,0a7.138,7.138,0,0,1-2.231,5.445,7.89,7.89,0,0,1-4.157,2.013l-1.887-3.256a6.034,6.034,0,0,0,3.386-1.33c.774-.642,1.031-1.33,1.159-2.872H22.951V11.377H31.57Z" transform="translate(2.916 2.894)" fill="#e3e3df"/>
    </g>
  </g>
</svg>
