<?xml version="1.0" encoding="utf-8"?>
<!-- Generator: Adobe Illustrator 23.1.1, SVG Export Plug-In . SVG Version: 6.00 Build 0)  -->
<svg version="1.1" id="Layer_1" xmlns="http://www.w3.org/2000/svg" xmlns:xlink="http://www.w3.org/1999/xlink" x="0px" y="0px"
	 viewBox="0 0 78.05 77.72" style="enable-background:new 0 0 78.05 77.72;" xml:space="preserve">
<style type="text/css">
	.st0{clip-path:url(#SVGID_2_);}
	.st1{fill:#FFFFFF;}
	.st2{fill:#C4C4C6;}
	.st3{fill:#2B2E34;}
	.st4{clip-path:url(#SVGID_4_);}
	.st5{fill:#952230;}
	.st6{clip-path:url(#SVGID_6_);}
</style>
<g>
	<defs>
		<rect id="SVGID_1_" x="0" width="78.05" height="77.72"/>
	</defs>
	<clipPath id="SVGID_2_">
		<use xlink:href="#SVGID_1_"  style="overflow:visible;"/>
	</clipPath>
	<g id="Group_6" class="st0">
		<g id="Group_3" transform="translate(0 0)">
			<path id="Path_15" class="st1" d="M76.62,48.07c0.73-3.02,1.1-6.11,1.1-9.21C77.7,17.41,60.31,0.02,38.86,0
				C17.41,0.02,0.02,17.41,0,38.86c0,3.1,0.37,6.2,1.1,9.21H0.01v26.45H23.4c4.88,2.12,10.14,3.21,15.46,3.2
				c5.32,0.01,10.58-1.08,15.46-3.2h23.73V48.07H76.62z"/>
		</g>
		<g id="Group_4" transform="translate(4.166 4.135)">
			<path id="Path_16" class="st2" d="M16.16,5.27c2.53-1.6,5.25-2.86,8.1-3.75c-1.92,1.58-3.69,3.34-5.27,5.26
				C18.02,6.32,17.07,5.82,16.16,5.27 M25.25,11.65c-0.52,1.48-1.09,3.47-1.58,5.47l-8.31,0.06c1.18-2.6,2.64-5.06,4.34-7.35
				C21.51,10.57,23.36,11.18,25.25,11.65 M30.38,0.23c-1.68,2.89-3.12,5.93-4.3,9.06c-1.61-0.4-3.2-0.9-4.75-1.5
				C23.9,4.78,26.96,2.22,30.38,0.23 M28.56,9.79c1.31-3.42,2.95-6.69,4.9-9.79v10.26C31.82,10.22,30.18,10.06,28.56,9.79
				 M27.71,12.17c1.9,0.36,3.83,0.55,5.76,0.59v2.33c-0.96-0.6-2.1-1.07-2.87-0.45l-3.37,2.73c-0.23-0.16-0.5-0.26-0.78-0.27h-0.19
				C26.69,15.31,27.21,13.57,27.71,12.17 M57.64,31.8c0.03,0.55,0.06,1.09,0.06,1.63h-2.35C56.15,32.93,56.91,32.39,57.64,31.8
				 M45.13,1.52c2.85,0.89,5.57,2.16,8.1,3.75c-0.91,0.55-1.86,1.05-2.83,1.5C48.81,4.85,47.05,3.1,45.13,1.52 M44.42,12.48
				c-0.1-0.29-0.19-0.57-0.28-0.83c1.89-0.47,3.74-1.07,5.54-1.81c1.16,1.56,2.21,3.2,3.14,4.91c-0.6-0.14-1.2,0.1-2.37,0.83
				C46.87,13.76,45.59,12.59,44.42,12.48 M39.01,0.23c3.42,1.99,6.48,4.55,9.05,7.57c-1.55,0.6-3.13,1.1-4.75,1.5
				C42.13,6.16,40.69,3.13,39.01,0.23 M35.92,0c1.95,3.09,3.59,6.37,4.9,9.79c-1.62,0.28-3.26,0.44-4.9,0.48V0z M35.92,12.75
				c1.93-0.04,3.86-0.23,5.76-0.59c0.14,0.39,0.28,0.8,0.41,1.23c-0.51,0.35-1.12,0.81-1.87,1.38l-4.3,1.19V12.75z M51.97,8.8
				c1.2-0.59,2.37-1.24,3.51-1.96c3.69,2.8,6.8,6.27,9.18,10.24c-1.07,0.41-2.13,0.79-3.22,1.14c-2.54-2.77-2.14-2.84-5.22-2.19
				C55.06,13.48,53.64,11.05,51.97,8.8 M65.8,19.27c2.21,4.4,3.43,9.23,3.59,14.15h-9.17c-0.03-1.23-0.11-2.45-0.24-3.66
				c0.47-0.43,0.81-0.76,0.99-0.9l4.87-0.66c2.82-0.38,0.73-7.54-1.41-7.5h-0.1c-0.1-0.11-0.21-0.21-0.32-0.31l-0.39-0.32
				C64.35,19.81,65.08,19.54,65.8,19.27 M17.43,8.8c-1.74,2.35-3.22,4.89-4.41,7.56c-1.09-0.76-2.45-1.12-2.45,1.14v1.53
				c-2.02-0.58-3.92-1.22-5.83-1.94c2.38-3.97,5.49-7.45,9.18-10.24C15.04,7.55,16.22,8.21,17.43,8.8 M3.54,19.3
				c2.42,0.9,4.9,1.72,7.49,2.42c-0.43,1.46-0.79,2.93-1.08,4.43c-0.82,0.47-2.32,1.32-2.32,2.36v1.16H5.79
				c-0.86,0.02-1.54,0.71-1.56,1.57v0.97c0.01,0.47,0.23,0.92,0.6,1.22H0C0.16,28.52,1.37,23.7,3.54,19.3"/>
		</g>
		<g id="Group_5" transform="translate(9.954 21.626)">
			<path id="Path_17" class="st3" d="M1.57,14.72v2.89l1.25,0.34v-3.22H1.57z M2.83,18.79L0.84,18.2v-3.48H0v-0.97h3.41v-2.73
				l2.44-1.56l2.1-6.17h8.26l2.9,6.66h0.58l1.56,3.5l1.53-0.21l-4.65-9.92l-2.14-1.07H6.33V0L7.5,1.27l13.16-0.1l3.12,4.29
				l34.89-0.68l1.17,4.39l-5.29,0.72l-6.79,5.32l-2.54,0.37c-1.01-0.48-2.12-0.73-3.25-0.73c-3.17,0-6,1.97-7.1,4.94H34.5
				l-1.47,4.39h-5.95l-1.27-4.19h-2.27c-1.35-3.96-5.65-6.08-9.61-4.73c-2.94,1-4.98,3.7-5.13,6.8l-0.44-0.02L6.82,23.1l-2.24,0.39
				V22.9l-2.73,0.29v-3.61h0.98V18.79z M8.92,4.41L7.79,8.05h6.04V4.41H8.92z M15.34,4.41h-0.75v3.64h2.16L15.34,4.41z"/>
		</g>
	</g>
</g>
<g id="Group_7" transform="translate(31.826 18.115)">
	<path id="Path_19" class="st3" d="M0,5.04l3.92-3.17l3.21,2.05l6.14-1.69L16.2,0l6.66,3.39l1.87-1.17l2.51,1.7l3.45-0.7l2.22,2.4
		l2.43,2l-33,0.64L0,5.04z"/>
</g>
<g>
	<defs>
		<rect id="SVGID_3_" x="0" width="78.05" height="77.72"/>
	</defs>
	<clipPath id="SVGID_4_">
		<use xlink:href="#SVGID_3_"  style="overflow:visible;"/>
	</clipPath>
	<g id="Group_11" class="st4">
		<g id="Group_8" transform="translate(45.07 37.191)">
			<path id="Path_20" class="st3" d="M6.85,0C3.07,0,0,3.07,0,6.85c0,3.78,3.07,6.85,6.85,6.85c0,0,0,0,0,0
				c3.78,0,6.85-3.07,6.85-6.85c0,0,0,0,0,0C13.7,3.07,10.63,0,6.85,0"/>
		</g>
		<g id="Group_9" transform="translate(19.489 37.191)">
			<path id="Path_21" class="st3" d="M6.85,0C3.07,0,0,3.07,0,6.85c0,3.78,3.07,6.85,6.85,6.85c0,0,0,0,0,0
				c3.78,0,6.85-3.07,6.85-6.85c0,0,0,0,0,0C13.7,3.07,10.63,0,6.85,0"/>
		</g>
		<g id="Group_10" transform="translate(4.127 39.782)">
			<path id="Path_22" class="st5" d="M69.63,0H55.04c0.76,1.29,1.16,2.76,1.16,4.26c0,4.65-3.77,8.41-8.41,8.41
				c-3.55,0-6.71-2.23-7.91-5.56c-0.26,0.29-0.62,0.45-1.01,0.47h-5.95c-1.49,0-2.04-2.43-2.3-3.64l0.01,0.32
				c0,4.65-3.77,8.41-8.41,8.41l0,0c-4.01,0-7.47-2.84-8.25-6.77c-1.43,0.82-3.64,1.68-4.7,0.55c-1.15,0.12-3.14,0.5-3.14-1.4V1.46
				C5.51,1.22,5.11,0.64,5.1,0H0c0.13,4.09,0.99,8.13,2.53,11.93H0.05V30.7h20.65c4.46,1.98,9.28,3,14.16,2.99
				c4.88,0.01,9.7-1.01,14.15-2.99h20.64V11.93h-2.56C68.63,8.13,69.49,4.09,69.63,0"/>
		</g>
	</g>
</g>
<g id="Group_12" transform="translate(8.659 54.521)">
	<path id="Path_24" class="st1" d="M0,0h2.84v4.95h5.22V0h2.84v12.9H8.06V7.33H2.84v5.57H0V0z"/>
</g>
<path id="Path_25" class="st1" d="M23.46,56.63H20.9v-2.11h2.57L23.46,56.63z M20.9,58.08h2.57v9.34H20.9V58.08z"/>
<path id="Path_26" class="st1" d="M24.55,54.52h2.56v12.9h-2.56V54.52z"/>
<path id="Path_27" class="st1" d="M28.26,54.52h2.56v12.9h-2.56V54.52z"/>
<g>
	<defs>
		<rect id="SVGID_5_" x="0" width="78.05" height="77.72"/>
	</defs>
	<clipPath id="SVGID_6_">
		<use xlink:href="#SVGID_5_"  style="overflow:visible;"/>
	</clipPath>
	<g id="Group_17" class="st6">
		<g id="Group_13" transform="translate(31.898 54.521)">
			<path id="Path_28" class="st1" d="M0,0h2.57v4.86h0.05C3.2,3.91,4.23,3.33,5.35,3.31c2.73,0,3.41,1.54,3.41,3.85v5.75H6.2V7.62
				c0-1.54-0.45-2.29-1.64-2.29C3.16,5.33,2.57,6.1,2.57,8v4.9H0V0z"/>
		</g>
		<g id="Group_14" transform="translate(41.275 57.826)">
			<path id="Path_29" class="st1" d="M2.56,5.55c0.07,1.62,0.87,2.37,2.29,2.37C5.71,7.96,6.51,7.48,6.88,6.7h2.26
				C8.63,8.67,6.79,9.99,4.77,9.84C2.25,9.97,0.11,8.02-0.01,5.51C-0.02,5.32-0.02,5.12,0,4.93c-0.14-2.58,1.84-4.79,4.43-4.93
				C4.54,0,4.65,0,4.77,0C7.95,0,9.48,2.67,9.3,5.55H2.56z M6.74,3.92C6.5,2.62,5.94,1.93,4.7,1.93C3.58,1.87,2.63,2.73,2.57,3.84
				c0,0.03,0,0.05,0,0.08H6.74z"/>
		</g>
		<g id="Group_15" transform="translate(50.683 57.826)">
			<path id="Path_30" class="st1" d="M0.29,3.13C0.43,0.73,2.58,0,4.68,0c1.86,0,4.1,0.42,4.1,2.65v4.86
				C8.73,8.22,8.84,8.93,9.1,9.59H6.5C6.41,9.3,6.35,9,6.32,8.69C5.47,9.48,4.34,9.9,3.18,9.84C1.41,9.84,0,8.96,0,7.04
				c0-2.11,1.59-2.62,3.18-2.84c1.57-0.23,3.03-0.18,3.03-1.23c0-1.1-0.76-1.26-1.66-1.26c-0.97,0-1.61,0.4-1.7,1.41L0.29,3.13z
				 M6.21,5.02C5.55,5.35,4.82,5.54,4.08,5.56C3.28,5.73,2.57,6,2.57,6.94c0,0.96,0.74,1.19,1.57,1.19c1.05,0.1,1.98-0.66,2.08-1.71
				c0.01-0.15,0.01-0.29-0.01-0.44V5.02z"/>
		</g>
		<g id="Group_16" transform="translate(60.234 54.521)">
			<path id="Path_31" class="st1" d="M7.06,11.7H7.03c-0.61,0.97-1.7,1.52-2.84,1.44c-2.82,0-4.19-2.42-4.19-5
				c0-2.51,1.39-4.84,4.14-4.84C5.23,3.27,6.28,3.79,6.9,4.7h0.04V0H9.5v12.9H7.06V11.7z M4.82,5.24c-1.68,0-2.26,1.44-2.26,2.98
				c0,1.46,0.67,3,2.26,3c1.7,0,2.2-1.48,2.2-3.02C7.02,6.69,6.48,5.24,4.82,5.24"/>
		</g>
	</g>
</g>
</svg>
