<svg id="Group_348" data-name="Group 348" xmlns="http://www.w3.org/2000/svg" xmlns:xlink="http://www.w3.org/1999/xlink" width="30.964" height="25.239" viewBox="0 0 30.964 25.239">
  <defs>
    <clipPath id="clip-path">
      <rect id="Rectangle_161" data-name="Rectangle 161" width="30.964" height="25.239" fill="#575757"/>
    </clipPath>
  </defs>
  <g id="Group_347" data-name="Group 347" transform="translate(0 0)" clip-path="url(#clip-path)">
    <rect id="Rectangle_155" data-name="Rectangle 155" width="3.027" height="2.803" rx="1.174" transform="translate(10.406 8.957)" fill="#575757"/>
    <path id="Rectangle_156" data-name="Rectangle 156" d="M1.174,0h.68A1.173,1.173,0,0,1,3.027,1.173v.456A1.174,1.174,0,0,1,1.853,2.8H1.174A1.174,1.174,0,0,1,0,1.629V1.174A1.174,1.174,0,0,1,1.174,0Z" transform="translate(15.976 8.957)" fill="#575757"/>
    <rect id="Rectangle_157" data-name="Rectangle 157" width="3.027" height="2.803" rx="1.174" transform="translate(21.545 8.957)" fill="#575757"/>
    <path id="Rectangle_158" data-name="Rectangle 158" d="M1.174,0h.68A1.173,1.173,0,0,1,3.027,1.173v.456A1.174,1.174,0,0,1,1.853,2.8H1.174A1.174,1.174,0,0,1,0,1.629V1.174A1.174,1.174,0,0,1,1.174,0Z" transform="translate(4.837 13.648)" fill="#575757"/>
    <rect id="Rectangle_159" data-name="Rectangle 159" width="3.027" height="2.803" rx="1.174" transform="translate(10.406 13.648)" fill="#575757"/>
    <path id="Rectangle_160" data-name="Rectangle 160" d="M1.174,0h.68A1.173,1.173,0,0,1,3.027,1.173v.456A1.174,1.174,0,0,1,1.853,2.8H1.174A1.174,1.174,0,0,1,0,1.629V1.174A1.174,1.174,0,0,1,1.174,0Z" transform="translate(15.976 13.648)" fill="#575757"/>
    <path id="Path_512" data-name="Path 512" d="M12.114,36.677H10.261a.589.589,0,0,0-.587.587v1.629a.589.589,0,0,0,.587.587h1.854a.588.588,0,0,0,.587-.587V37.264a.588.588,0,0,0-.587-.587" transform="translate(-4.837 -18.338)" fill="#575757"/>
    <path id="Path_513" data-name="Path 513" d="M23.253,36.677H21.4a.588.588,0,0,0-.587.587v1.629a.588.588,0,0,0,.587.587h1.853a.589.589,0,0,0,.587-.587V37.264a.589.589,0,0,0-.587-.587" transform="translate(-10.406 -18.338)" fill="#575757"/>
    <path id="Path_514" data-name="Path 514" d="M34.392,36.677H32.539a.588.588,0,0,0-.587.587v1.629a.588.588,0,0,0,.587.587h1.853a.589.589,0,0,0,.587-.587V37.264a.589.589,0,0,0-.587-.587" transform="translate(-15.976 -18.338)" fill="#575757"/>
    <path id="Path_515" data-name="Path 515" d="M20.891,23.94H2.727A1.43,1.43,0,0,1,1.3,22.512V5.878H28.055V11.4a.65.65,0,0,0,1.3,0V4.483c0-.021-.01-.039-.013-.061V2.254A2.254,2.254,0,0,0,27.087,0H23.433V2.158a1,1,0,0,1-2,0V0H18.259V2.158a1,1,0,0,1-2,0V0H13.085V2.158a1,1,0,0,1-2,0V0H7.91V2.158a1,1,0,1,1-2,0V0H2.258A2.254,2.254,0,0,0,0,2.254V4.462c0,.006,0,.012,0,.018V22.512a2.73,2.73,0,0,0,2.727,2.727H20.891a.649.649,0,1,0,0-1.3" transform="translate(0 0)" fill="#575757"/>
    <path id="Path_516" data-name="Path 516" d="M46.629,27.352a5.1,5.1,0,1,0,5.1,5.1,5.1,5.1,0,0,0-5.1-5.1m3.415,3.919-3.638,3.638a.876.876,0,0,1-.619.257h0a.875.875,0,0,1-.619-.257L43.4,33.136A.875.875,0,1,1,44.641,31.9l1.147,1.151,3.019-3.019a.875.875,0,0,1,1.238,1.237" transform="translate(-20.764 -13.676)" fill="#575757"/>
  </g>
</svg>
