<svg xmlns="http://www.w3.org/2000/svg" width="255.73" height="85.294" viewBox="0 0 255.73 85.294">
  <g id="Group_450" data-name="Group 450" transform="translate(-51 -25.706)">
    <path id="Path_639" data-name="Path 639" d="M28.542,74.707a10.511,10.511,0,1,1,.131-13.943H35.9V53.483a20.755,20.755,0,1,0,0,28.363V74.707Z" transform="translate(51 9.433)" fill="#ca0538"/>
    <g id="Group_449" data-name="Group 449">
      <path id="Path_635" data-name="Path 635" d="M80.792,52.193,79.655,53.8l-.042-1.91V48.243H69.63V87.229H80.416V65.96c0-3.879.778-9.038,7.508-9.038,6.148,0,6.937,4.792,6.937,8.967v21.34H105.64V62.694c0-7.221-2.481-15.827-14.3-15.827-6.781,0-9.137,3.333-10.544,5.326" transform="translate(56.504 9.43)" fill="#41413e"/>
      <path id="Path_636" data-name="Path 636" d="M117.076,52.193,115.939,53.8l-.042-1.91V48.243h-9.983V87.229H116.7V65.96c0-3.879.778-9.038,7.508-9.038,6.148,0,6.937,4.792,6.937,8.967v21.34h10.779V62.694c0-7.221-2.481-15.827-14.3-15.827-6.781,0-9.137,3.333-10.544,5.326" transform="translate(59.372 9.43)" fill="#41413e"/>
      <path id="Path_633" data-name="Path 633" d="M161.868,46.868a20.834,20.834,0,0,0,.218,41.665,18.9,18.9,0,0,0,11.094-3.507,22.813,22.813,0,0,0,7.58-9.161H169.735a8.635,8.635,0,0,1-7.649,3.771c-5.211,0-9.375-3.22-9.9-7.659l-.083-.7h30.09c.821-7.382-1-13.351-5.557-18.234a20.052,20.052,0,0,0-14.767-6.176M152.225,63.4l.11-.72c.344-2.255,3.146-6.913,9.608-6.913s9.258,4.658,9.6,6.912l.111.721Z" transform="translate(62.177 9.43)" fill="#41413e"/>
      <path id="Path_634" data-name="Path 634" d="M192.593,67.7a11.716,11.716,0,0,1,2.767-7.811,9.2,9.2,0,0,1,7.459-3.038h0a9.558,9.558,0,0,1,9.058,5.653h11.006c-2.26-9.246-10.592-15.638-20.529-15.638A20.471,20.471,0,0,0,181.737,67.63a20.683,20.683,0,0,0,20.91,20.9,20.965,20.965,0,0,0,20.289-15.348H211.86a9.827,9.827,0,0,1-9.072,5.36c-6,0-10.195-4.46-10.195-10.843" transform="translate(65.365 9.43)" fill="#41413e"/>
      <path id="Path_637" data-name="Path 637" d="M232.415,35.611H221.63v52.4h10.785V56.9h5.8V49.022h-5.8Z" transform="translate(68.519 8.54)" fill="#41413e"/>
      <path id="Path_638" data-name="Path 638" d="M41.541,86.892a10.511,10.511,0,1,0-.131-13.943H34.18V65.668a20.755,20.755,0,1,1,0,28.363V86.892Z" transform="translate(53.702 10.396)" fill="#41413e"/>
    </g>
    <g id="Group_448" data-name="Group 448">
      <path id="Path_640" data-name="Path 640" d="M27.84,38.255a13.1,13.1,0,0,1-12.113,7.554,13.646,13.646,0,1,1-.036-27.292,13.4,13.4,0,0,1,12.149,7.7H24.668a10.579,10.579,0,0,0-8.978-5.094A10.746,10.746,0,0,0,4.9,32.128a10.734,10.734,0,0,0,19.772,6.127Z" transform="translate(51.156 7.189)" fill="#ca0538"/>
      <path id="Path_641" data-name="Path 641" d="M26.609,35.2A9.91,9.91,0,0,1,36.762,25.12,9.927,9.927,0,0,1,46.952,35.238,9.9,9.9,0,0,1,36.762,45.322,9.888,9.888,0,0,1,26.609,35.238Zm2.6.072a7.553,7.553,0,1,0,15.106-.038,7.554,7.554,0,1,0-15.106,0Z" transform="translate(53.103 7.711)" fill="#ca0538"/>
      <path id="Path_642" data-name="Path 642" d="M46.872,25.656h2.495c0,1.067,0,2.138-.037,3.421,1.106-2.495,3.707-4.027,7.127-3.957,5.95.072,8.052,4.134,8.052,8.8v10.9h-2.6V34.455c0-4.131-1.852-6.948-6.162-6.876-3.956.036-6.236,2.422-6.236,6.415V44.824H46.872Z" transform="translate(54.705 7.711)" fill="#ca0538"/>
      <path id="Path_643" data-name="Path 643" d="M84.6,38.339a10.194,10.194,0,0,1-19.88-3.1A10.167,10.167,0,0,1,84.6,32.282H81.889a7.6,7.6,0,0,0-12.363-2.564,7.865,7.865,0,0,0-2.172,5.52A7.449,7.449,0,0,0,74.906,42.9a7.228,7.228,0,0,0,6.948-4.56Z" transform="translate(56.116 7.711)" fill="#ca0538"/>
      <path id="Path_644" data-name="Path 644" d="M84.859,25.656h2.495V28.79a6.529,6.529,0,0,1,6.128-3.67v2.6h-.249c-3.705,0-5.771,2.316-5.771,6.664V44.823h-2.6Z" transform="translate(57.708 7.711)" fill="#ca0538"/>
      <path id="Path_645" data-name="Path 645" d="M95.146,35.986a7.3,7.3,0,0,0,7.482,7.09,7.085,7.085,0,0,0,6.591-3.954h2.744a10.166,10.166,0,0,1-3.885,4.667,10.02,10.02,0,0,1-5.45,1.567,9.9,9.9,0,0,1-10.119-10.08,10.071,10.071,0,1,1,20.1.71ZM110,33.886a7.471,7.471,0,0,0-14.821,0Z" transform="translate(58.312 7.711)" fill="#ca0538"/>
      <path id="Path_646" data-name="Path 646" d="M113.477,18.947h2.6v7.2h4.205v2.1h-4.205V45.311h-2.6Z" transform="translate(59.97 7.223)" fill="#ca0538"/>
      <path id="Path_647" data-name="Path 647" d="M121.843,35.986a7.3,7.3,0,0,0,7.482,7.09,7.086,7.086,0,0,0,6.591-3.954h2.744a10.159,10.159,0,0,1-3.885,4.667,10.02,10.02,0,0,1-5.45,1.567,9.9,9.9,0,0,1-10.119-10.08,10.071,10.071,0,1,1,20.1.71Zm14.857-2.1a7.471,7.471,0,0,0-14.821,0Z" transform="translate(60.423 7.711)" fill="#ca0538"/>
    </g>
  </g>
</svg>
